<?xml version="1.0" encoding="UTF-8" standalone="no"?>
<svg width="19px" height="19px" viewBox="0 0 19 19" version="1.1" xmlns="http://www.w3.org/2000/svg" xmlns:xlink="http://www.w3.org/1999/xlink">
    <!-- Generator: Sketch 41.2 (35397) - http://www.bohemiancoding.com/sketch -->
    <title>fb-logo</title>
    <desc>Created with Sketch.</desc>
    <defs>
        <path d="M9.80000019,18.32 L2.31888038,18.32 C1.21492923,18.32 0.32,17.4273772 0.32,16.3249107 L0.32,2.31508929 L0.32,2.31508929 C0.32,1.2132319 1.2126228,0.32 2.31508929,0.32 L16.3249107,0.32 C17.4267681,0.32 18.32,1.2126228 18.32,2.31508929 L18.32,16.3249107 C18.32,17.4267681 17.4240891,18.32 16.3188153,18.32 L12.82,18.32" id="path-1"></path>
        <mask id="mask-2" maskContentUnits="userSpaceOnUse" maskUnits="objectBoundingBox" x="0" y="0" width="18" height="18" fill="white">
            <use xlink:href="#path-1"></use>
        </mask>
    </defs>
    <g id="Page-1" stroke="none" stroke-width="1" fill="none" fill-rule="evenodd">
        <g id="home-copy-3" transform="translate(-4.000000, -4.000000)">
            <g id="fb-logo" transform="translate(4.000000, 4.000000)">
                <path d="M0.32,3.19205701 C0.32,1.60586372 1.61451561,0.32 3.19205701,0.32 L15.447943,0.32 C17.0341363,0.32 18.32,1.61451561 18.32,3.19205701 L18.32,15.447943 C18.32,17.0341363 17.0254844,18.32 15.447943,18.32 L3.19205701,18.32 C1.60586372,18.32 0.32,17.0254844 0.32,15.447943 L0.32,3.19205701 Z M12.7190811,18.2718378 L12.7190811,11.335722 L15.0471969,11.335722 L15.3957992,8.63259459 L12.7190811,8.63259459 L12.7190811,6.90681853 C12.7190811,6.12420077 12.9364015,5.59087259 14.0586564,5.59087259 L15.4900386,5.5902471 L15.4900386,3.17254826 C15.2424865,3.13960618 14.3928031,3.06600772 13.4042625,3.06600772 C11.3405174,3.06600772 9.92762162,4.32572973 9.92762162,6.63911197 L9.92762162,8.63259459 L7.59352896,8.63259459 L7.59352896,11.335722 L9.92762162,11.335722 L9.92762162,18.2718378 L12.7190811,18.2718378 Z" fill="#4E5E68" opacity="0.300000012"></path>
                <use id="Rectangle" stroke="#829199" mask="url(#mask-2)" stroke-width="2" opacity="0.400000006" xlink:href="#path-1"></use>
            </g>
        </g>
    </g>
</svg>